<svg width="300" height="80.225" viewBox="-20 0 300 80.225" xmlns="http://www.w3.org/2000/svg">
  <!-- 定义渐变色 -->
  <defs>
    <linearGradient id="myGradient" x1="0%" y1="0%" x2="100%" y2="100%">
      <stop offset="0%" style="stop-color:#eeeeee;stop-opacity:1" />
      <stop offset="100%" style="stop-color:white;stop-opacity:0" />
    </linearGradient>
  </defs>
  <g id="svgGroup" fill-rule="evenodd" font-size="9pt" transform="skewX(-10)">
    <path d="M 89.697 14.258 L 109.18 14.258 L 108.838 20.41 A 18.441 18.441 0 0 1 111.182 17.379 A 14.209 14.209 0 0 1 114.307 14.917 A 13.753 13.753 0 0 1 120.044 13.15 A 16.922 16.922 0 0 1 121.533 13.086 A 13.477 13.477 0 0 1 132.163 17.921 A 19.228 19.228 0 0 1 133.984 20.41 A 21.263 21.263 0 0 1 136.371 17.467 A 15.52 15.52 0 0 1 139.6 14.917 A 13.462 13.462 0 0 1 146.533 13.086 A 17.046 17.046 0 0 1 150.266 13.474 A 12.038 12.038 0 0 1 154.858 15.527 A 12.18 12.18 0 0 1 157.411 18.034 A 10.035 10.035 0 0 1 159.082 21.509 A 20.063 20.063 0 0 1 159.509 23.701 Q 160.01 27.163 160.01 33.008 L 160.01 79.053 L 140.869 79.053 L 140.869 36.816 Q 140.869 28.516 140.308 26.538 A 3.22 3.22 0 0 0 139.874 25.582 Q 139.301 24.752 138.221 24.596 A 3.687 3.687 0 0 0 137.695 24.561 Q 135.814 24.561 135.128 26.129 A 3.76 3.76 0 0 0 134.985 26.514 A 7.488 7.488 0 0 0 134.755 27.622 Q 134.375 30.228 134.375 36.816 L 134.375 79.053 L 115.234 79.053 L 115.234 37.891 Q 115.234 28.635 114.796 26.577 A 3.969 3.969 0 0 0 114.771 26.465 A 2.807 2.807 0 0 0 114.366 25.523 Q 113.887 24.831 112.981 24.637 A 3.688 3.688 0 0 0 112.207 24.561 A 2.932 2.932 0 0 0 110.049 25.47 A 3.762 3.762 0 0 0 109.961 25.562 A 3.847 3.847 0 0 0 108.942 27.913 A 4.799 4.799 0 0 0 108.936 28.003 Q 108.838 29.443 108.838 34.131 L 108.838 79.053 L 89.697 79.053 L 89.697 14.258 Z M 194.189 14.258 L 214.258 14.258 L 213.916 20.215 Q 216.064 16.65 219.165 14.868 Q 222.266 13.086 226.318 13.086 A 17.685 17.685 0 0 1 229.866 13.422 Q 232.156 13.891 233.939 15.013 A 10.698 10.698 0 0 1 234.619 15.479 A 11.375 11.375 0 0 1 237.427 18.42 A 10.333 10.333 0 0 1 238.77 21.509 A 20.912 20.912 0 0 1 239.197 23.784 Q 239.533 26.216 239.643 29.83 A 125.488 125.488 0 0 1 239.697 33.643 L 239.697 79.053 L 219.971 79.053 L 219.971 34.18 Q 219.971 27.49 219.531 26.025 A 1.872 1.872 0 0 0 218.247 24.722 Q 217.878 24.601 217.411 24.571 A 4.965 4.965 0 0 0 217.09 24.561 A 3.953 3.953 0 0 0 216.113 24.672 Q 215.409 24.852 214.973 25.322 A 2.415 2.415 0 0 0 214.453 26.245 A 6.34 6.34 0 0 0 214.25 27.207 Q 213.998 28.917 213.936 32.622 A 157.976 157.976 0 0 0 213.916 35.254 L 213.916 79.053 L 194.189 79.053 L 194.189 14.258 Z M 62.891 14.258 L 82.617 14.258 L 82.617 79.053 L 62.549 79.053 L 62.891 73.682 A 15.142 15.142 0 0 1 60.443 76.696 A 12.588 12.588 0 0 1 57.837 78.589 Q 54.834 80.225 50.928 80.225 Q 46.484 80.225 43.555 78.662 Q 40.625 77.1 39.233 74.512 Q 37.842 71.924 37.5 69.116 Q 37.221 66.823 37.17 60.831 A 337.654 337.654 0 0 1 37.158 57.959 L 37.158 14.258 L 56.885 14.258 L 56.885 58.35 Q 56.885 65.705 57.323 67.25 A 2.206 2.206 0 0 0 57.349 67.334 A 1.889 1.889 0 0 0 58.676 68.594 Q 59.182 68.75 59.863 68.75 A 4.987 4.987 0 0 0 60.767 68.675 Q 61.244 68.587 61.595 68.395 A 1.763 1.763 0 0 0 62.476 67.285 Q 62.866 65.908 62.889 58.786 A 283.489 283.489 0 0 0 62.891 57.861 L 62.891 14.258 Z M 264.111 32.568 L 264.111 39.355 L 245.605 39.355 L 245.605 35.01 A 52.583 52.583 0 0 1 245.766 30.747 Q 246.101 26.643 247.133 23.924 A 14.051 14.051 0 0 1 247.339 23.413 A 12.595 12.595 0 0 1 249.837 19.687 Q 251.603 17.822 254.297 16.211 A 20.336 20.336 0 0 1 259.829 13.981 Q 262.286 13.366 265.166 13.173 A 40.624 40.624 0 0 1 267.871 13.086 A 45.268 45.268 0 0 1 273.38 13.398 Q 279.286 14.124 282.836 16.541 A 13.464 13.464 0 0 1 282.959 16.626 Q 288.037 20.166 289.063 25.317 Q 289.9 29.526 290.054 41.016 A 414.729 414.729 0 0 1 290.088 46.533 L 290.088 79.053 L 270.898 79.053 L 270.898 73.291 A 14.822 14.822 0 0 1 268.974 76.16 A 11.523 11.523 0 0 1 266.235 78.491 A 11.78 11.78 0 0 1 262.027 80.017 A 15.739 15.739 0 0 1 259.424 80.225 A 16.665 16.665 0 0 1 249.927 77.319 Q 245.605 74.414 245.605 64.6 L 245.605 59.277 Q 245.605 53.652 246.977 50.8 A 6.39 6.39 0 0 1 247.9 49.365 A 9.053 9.053 0 0 1 249.441 48.014 Q 252.43 45.863 259.277 43.213 A 187.349 187.349 0 0 0 261.565 42.3 Q 267.671 39.813 269.21 38.585 A 1.75 1.75 0 0 0 269.678 38.086 A 3.944 3.944 0 0 0 269.976 37.26 Q 270.324 35.904 270.358 33.289 A 44.603 44.603 0 0 0 270.361 32.715 Q 270.361 27.637 269.604 26.099 Q 268.946 24.761 267.53 24.587 A 3.609 3.609 0 0 0 267.09 24.561 Q 266.07 24.561 265.443 24.896 A 1.76 1.76 0 0 0 264.6 25.854 A 4.292 4.292 0 0 0 264.412 26.601 Q 264.111 28.313 264.111 32.568 Z M 0 0 L 20.557 0 L 20.557 63.232 L 33.057 63.232 L 33.057 79.053 L 0 79.053 L 0 0 Z M 166.797 14.258 L 187.109 14.258 L 187.109 79.053 L 166.797 79.053 L 166.797 14.258 Z M 166.797 0 L 187.109 0 L 187.109 10.303 L 166.797 10.303 L 166.797 0 Z M 270.361 61.572 L 270.361 48.242 A 37.473 37.473 0 0 0 268.36 49.806 Q 265.481 52.23 264.882 54.012 A 3.566 3.566 0 0 0 264.868 54.053 A 12.347 12.347 0 0 0 264.469 55.718 Q 264.162 57.481 264.118 59.96 A 47.657 47.657 0 0 0 264.111 60.791 A 60.164 60.164 0 0 0 264.143 62.821 Q 264.256 66.141 264.771 67.285 Q 265.43 68.75 267.383 68.75 A 4.614 4.614 0 0 0 268.23 68.678 Q 268.678 68.594 269.016 68.412 A 1.803 1.803 0 0 0 269.8 67.603 A 3.154 3.154 0 0 0 270.019 66.922 Q 270.361 65.387 270.361 61.572 Z" vector-effect="non-scaling-stroke" fill="url(#myGradient)"/></g></svg>